<?xml version="1.0" encoding="UTF-8" standalone="no"?>
<!-- Created with Inkscape (http://www.inkscape.org/) -->

<svg
   xmlns:dc="http://purl.org/dc/elements/1.1/"
   xmlns:cc="http://creativecommons.org/ns#"
   xmlns:rdf="http://www.w3.org/1999/02/22-rdf-syntax-ns#"
   xmlns:svg="http://www.w3.org/2000/svg"
   xmlns="http://www.w3.org/2000/svg"
   xmlns:xlink="http://www.w3.org/1999/xlink"
   xmlns:sodipodi="http://sodipodi.sourceforge.net/DTD/sodipodi-0.dtd"
   xmlns:inkscape="http://www.inkscape.org/namespaces/inkscape"
   width="194.21228mm"
   height="77.23185mm"
   viewBox="0 0 194.21228 77.23185"
   version="1.1"
   id="svg8"
   inkscape:version="0.92.5 (2060ec1f9f, 2020-04-08)"
   sodipodi:docname="logo.svg"
   inkscape:export-filename="/home/jindrichbar/Desktop/wbr/graphics/logo.png"
   inkscape:export-xdpi="100"
   inkscape:export-ydpi="100">
  <defs
     id="defs2">
    <linearGradient
       id="linearGradient6376"
       inkscape:collect="always">
      <stop
         id="stop6372"
         offset="0"
         style="stop-color:#9790ff;stop-opacity:1;" />
      <stop
         id="stop6374"
         offset="1"
         style="stop-color:#17d3d3;stop-opacity:1" />
    </linearGradient>
    <linearGradient
       inkscape:collect="always"
       id="linearGradient6287">
      <stop
         style="stop-color:#000e00;stop-opacity:1"
         offset="0"
         id="stop6283" />
      <stop
         style="stop-color:#696969;stop-opacity:1"
         offset="1"
         id="stop6285" />
    </linearGradient>
    <linearGradient
       inkscape:collect="always"
       id="linearGradient4785">
      <stop
         style="stop-color:#2f3f42;stop-opacity:1;"
         offset="0"
         id="stop4781" />
      <stop
         style="stop-color:#2f3fff;stop-opacity:0"
         offset="1"
         id="stop4783" />
    </linearGradient>
    <linearGradient
       inkscape:collect="always"
       id="linearGradient4777">
      <stop
         style="stop-color:#9790ff;stop-opacity:1;"
         offset="0"
         id="stop4773" />
      <stop
         style="stop-color:#d6ffff;stop-opacity:1"
         offset="1"
         id="stop4775" />
    </linearGradient>
    <linearGradient
       inkscape:collect="always"
       xlink:href="#linearGradient4777"
       id="linearGradient4779"
       x1="25.390606"
       y1="45.499374"
       x2="104.87657"
       y2="45.606285"
       gradientUnits="userSpaceOnUse"
       gradientTransform="translate(-0.1889881,-0.56696429)" />
    <linearGradient
       inkscape:collect="always"
       xlink:href="#linearGradient4785"
       id="linearGradient4787"
       x1="45.168549"
       y1="24.385082"
       x2="139.51469"
       y2="106.97137"
       gradientUnits="userSpaceOnUse" />
    <linearGradient
       inkscape:collect="always"
       xlink:href="#linearGradient6287"
       id="linearGradient6291"
       x1="63.929852"
       y1="75.656509"
       x2="65.917282"
       y2="18.41291"
       gradientUnits="userSpaceOnUse"
       gradientTransform="matrix(0.42160937,0,0,0.42160937,36.582579,28.711869)" />
    <linearGradient
       inkscape:collect="always"
       xlink:href="#linearGradient6287"
       id="linearGradient6303"
       x1="42.651184"
       y1="19.303255"
       x2="48.596992"
       y2="19.303255"
       gradientUnits="userSpaceOnUse"
       gradientTransform="translate(-2.6458334)" />
    <radialGradient
       inkscape:collect="always"
       xlink:href="#linearGradient6287"
       id="radialGradient6319"
       cx="42.485004"
       cy="15.142118"
       fx="42.485004"
       fy="15.142118"
       r="2.9269531"
       gradientUnits="userSpaceOnUse"
       gradientTransform="matrix(-0.32658031,-1.6787791,2.7444686,-0.53389363,15.362095,99.272711)" />
    <linearGradient
       inkscape:collect="always"
       xlink:href="#linearGradient6287"
       id="linearGradient6325"
       gradientUnits="userSpaceOnUse"
       x1="42.651184"
       y1="19.303255"
       x2="48.596992"
       y2="19.303255"
       gradientTransform="matrix(-1,0,0,1,126.74829,0)" />
    <radialGradient
       inkscape:collect="always"
       xlink:href="#linearGradient6287"
       id="radialGradient6327"
       gradientUnits="userSpaceOnUse"
       gradientTransform="matrix(-0.32658031,-1.6787791,2.7444686,-0.53389363,-108.74036,99.272711)"
       cx="42.485004"
       cy="15.142118"
       fx="42.485004"
       fy="15.142118"
       r="2.9269531" />
    <linearGradient
       inkscape:collect="always"
       xlink:href="#linearGradient6376"
       id="linearGradient6370"
       x1="518.67346"
       y1="72.14222"
       x2="286.71628"
       y2="68.194824"
       gradientUnits="userSpaceOnUse" />
    <linearGradient
       inkscape:collect="always"
       xlink:href="#linearGradient6376"
       id="linearGradient6382"
       gradientUnits="userSpaceOnUse"
       x1="518.67346"
       y1="72.14222"
       x2="286.71628"
       y2="68.194824" />
    <linearGradient
       inkscape:collect="always"
       xlink:href="#linearGradient6287"
       id="linearGradient6442"
       gradientUnits="userSpaceOnUse"
       gradientTransform="matrix(0.42160937,0,0,0.42160937,36.582579,28.711869)"
       x1="63.929852"
       y1="75.656509"
       x2="65.917282"
       y2="18.41291" />
  </defs>
  <sodipodi:namedview
     id="base"
     pagecolor="#ffffff"
     bordercolor="#666666"
     borderopacity="1.0"
     inkscape:pageopacity="0.0"
     inkscape:pageshadow="2"
     inkscape:zoom="1.4142136"
     inkscape:cx="382.8519"
     inkscape:cy="224.40035"
     inkscape:document-units="mm"
     inkscape:current-layer="flowRoot6348"
     showgrid="false"
     inkscape:window-width="2560"
     inkscape:window-height="1375"
     inkscape:window-x="0"
     inkscape:window-y="0"
     inkscape:window-maximized="1"
     inkscape:snap-perpendicular="false"
     fit-margin-top="2"
     fit-margin-left="10"
     fit-margin-bottom="2"
     fit-margin-right="10" />
  <metadata
     id="metadata5">
    <rdf:RDF>
      <cc:Work
         rdf:about="">
        <dc:format>image/svg+xml</dc:format>
        <dc:type
           rdf:resource="http://purl.org/dc/dcmitype/StillImage" />
        <dc:title></dc:title>
      </cc:Work>
    </rdf:RDF>
  </metadata>
  <g
     inkscape:label="Layer 1"
     inkscape:groupmode="layer"
     id="layer1"
     transform="translate(-15.736156,-6.3164864)">
    <circle
       style="fill:url(#linearGradient4779);fill-opacity:1;stroke-width:0.21576139"
       id="path4771"
       cx="62.352081"
       cy="44.932411"
       r="36.615925" />
    <path
       style="fill:url(#linearGradient4787);fill-opacity:1;stroke-width:0.26458332"
       d="M 52.160714,18.99851 H 73.32738 c 7.957155,0 13.543716,6.448241 14.363095,14.363096 l 2.22061,21.450148 c 0.819379,7.914854 -5.13027,14.079613 -13.087425,14.079613 H 49.220749 c -7.957155,0 -15.457802,-6.481603 -14.363095,-14.363095 L 37.797619,33.361606 C 38.892327,25.480113 44.203559,18.99851 52.160714,18.99851 Z"
       id="rect3713"
       inkscape:connector-curvature="0"
       sodipodi:nodetypes="sssssssss" />
    <path
       sodipodi:nodetypes="cczsszc"
       inkscape:connector-curvature="0"
       id="path4807"
       d="m 65.235833,56.344913 h -4.62617 c -2.288649,-0.490425 -2.726999,-2.292376 -3.749671,-4.393387 -1.022672,-2.101011 1.144931,-4.30474 2.898147,-4.30474 h 6.112525 c 1.762073,0 3.8185,1.929222 3.048346,4.358339 -0.770155,2.429117 -2.097771,4.283537 -3.683177,4.339788 z"
       style="fill:url(#linearGradient6442);fill-opacity:1;stroke-width:0.05173473" />
    <circle
       id="path3715"
       cx="48.921066"
       cy="42.292137"
       r="9.3544331"
       style="fill:#ffffff;stroke-width:0.15829772" />
    <circle
       style="fill:#ffffff;stroke-width:0.15829772"
       r="9.3544331"
       cy="42.292137"
       cx="76.966896"
       id="circle3717" />
    <circle
       style="fill:#000000;stroke-width:0.04996218"
       r="2.9524612"
       cy="42.292137"
       cx="44.687733"
       id="circle3719" />
    <circle
       id="circle3721"
       cx="81.729393"
       cy="42.292137"
       r="2.9524612"
       style="fill:#000000;stroke-width:0.04996218" />
    <path
       style="fill:none;stroke:url(#linearGradient6303);stroke-width:1.86500001;stroke-linecap:round;stroke-linejoin:miter;stroke-miterlimit:4;stroke-dasharray:none;stroke-opacity:1"
       d="m 40.944269,15.582553 4.067968,7.441406"
       id="path6293"
       inkscape:connector-curvature="0" />
    <circle
       style="fill:url(#radialGradient6319);fill-opacity:1;stroke:none;stroke-width:0.26458332"
       id="path6295"
       cx="41.919918"
       cy="16.888933"
       r="2.9269531" />
    <path
       inkscape:connector-curvature="0"
       id="path6321"
       d="m 83.158184,15.582553 -4.067968,7.441406"
       style="fill:none;stroke:url(#linearGradient6325);stroke-width:1.86500001;stroke-linecap:round;stroke-linejoin:miter;stroke-miterlimit:4;stroke-dasharray:none;stroke-opacity:1" />
    <circle
       r="2.9269531"
       cy="16.888933"
       cx="-82.182533"
       id="circle6323"
       style="fill:url(#radialGradient6327);fill-opacity:1;stroke:none;stroke-width:0.26458332"
       transform="scale(-1,1)" />
    <g
       aria-label="WBR"
       transform="matrix(0.42655935,0,0,0.42655935,-19.826278,15.229044)"
       style="font-style:normal;font-weight:normal;font-size:40px;line-height:1.25;font-family:sans-serif;letter-spacing:0px;word-spacing:0px;fill:url(#linearGradient6370);fill-opacity:1;stroke:none;stroke-width:1.51181102;stroke-miterlimit:4;stroke-dasharray:none"
       id="flowRoot6348">
      <path
         d="M 312.72656,103.93359 296.74219,35.964844 h 11.90625 l 10.96875,43.640625 14.48437,-43.640625 h 12.65625 l 14.85938,43.640625 10.17187,-43.640625 h 12.70313 L 368.97656,103.93359 H 356.46094 L 340.61719,57.105469 324.53906,103.93359 Z"
         style="font-style:normal;font-variant:normal;font-weight:bold;font-stretch:normal;font-size:96px;font-family:Umpush;-inkscape-font-specification:'Umpush Bold';fill:url(#linearGradient6382);fill-opacity:1;stroke:none"
         id="path6444" />
      <path
         d="m 441.77344,53.355469 q 0,2.25 -0.32813,4.21875 -0.32812,1.921875 -0.98437,3.328125 -0.65625,1.40625 -1.3125,2.484375 -0.60938,1.03125 -1.54688,1.828125 -0.89062,0.796875 -1.40625,1.21875 -0.51562,0.375 -1.3125,0.84375 -0.79687,0.421875 -0.84375,0.46875 11.0625,3.234375 11.0625,16.453125 0,2.4375 -0.46875,4.59375 -0.42187,2.15625 -1.45312,4.5 -0.98438,2.296875 -2.95313,4.171875 -1.92187,1.828125 -4.64062,3.328126 -2.71875,1.5 -6.89063,2.34375 -4.125,0.79687 -9.28125,0.79687 H 393.86719 V 35.964844 h 25.125 q 10.54687,0 16.64062,4.40625 6.14063,4.40625 6.14063,12.984375 z m -36.65625,10.921875 h 12.04687 q 7.35938,0 10.35938,-2.25 3,-2.25 3,-7.59375 0,-2.203125 -0.51563,-3.609375 -0.51562,-1.453125 -1.45312,-2.34375 -0.9375,-0.9375 -2.8125,-1.40625 -1.875,-0.46875 -4.03125,-0.609375 -2.15625,-0.1875 -5.67188,-0.1875 h -10.92187 z m 0,29.34375 h 14.29687 q 2.8125,0 4.73438,-0.140625 1.92187,-0.1875 3.89062,-0.75 2.01563,-0.5625 3.1875,-1.546875 1.17188,-0.984375 1.875,-2.71875 0.75,-1.78125 0.75,-4.265625 0,-3.046875 -0.84375,-4.921875 -0.84375,-1.921875 -2.90625,-2.953125 -2.01562,-1.03125 -4.73437,-1.359375 -2.71875,-0.375 -7.17188,-0.375 h -13.07812 z"
         style="font-style:normal;font-variant:normal;font-weight:bold;font-stretch:normal;font-size:96px;font-family:Umpush;-inkscape-font-specification:'Umpush Bold';fill:url(#linearGradient6382);fill-opacity:1;stroke:none"
         id="path6446" />
      <path
         d="m 510.07031,55.839844 q 0,4.546875 -1.40625,8.203125 -1.40625,3.65625 -3.28125,5.671875 -1.875,2.015625 -4.45312,3.515625 -2.53125,1.453125 -4.17188,1.96875 -1.59375,0.515625 -3.23437,0.796875 l 21.70312,27.937496 H 500.46094 L 481.28906,76.746094 h -12.42187 v 27.187496 h -11.25 V 35.964844 h 25.92187 q 7.35938,0 12.5625,1.40625 5.25,1.40625 8.25,4.125 3.04688,2.671875 4.35938,6.1875 1.35937,3.515625 1.35937,8.15625 z m -11.25,0 q 0,-5.203125 -4.26562,-7.359375 -4.21875,-2.203125 -12.14063,-2.203125 h -13.54687 v 20.15625 h 13.73437 q 8.71875,0 12.46875,-2.765625 3.75,-2.8125 3.75,-7.828125 z"
         style="font-style:normal;font-variant:normal;font-weight:bold;font-stretch:normal;font-size:96px;font-family:Umpush;-inkscape-font-specification:'Umpush Bold';fill:url(#linearGradient6382);fill-opacity:1;stroke:none"
         id="path6448" />
    </g>
  </g>
</svg>
